<?xml version="1.0" standalone="no"?>
<!DOCTYPE svg PUBLIC "-//W3C//DTD SVG 20010904//EN"
 "http://www.w3.org/TR/2001/REC-SVG-20010904/DTD/svg10.dtd">
<svg version="1.0" xmlns="http://www.w3.org/2000/svg"
 width="75.000000pt" height="13.000000pt" viewBox="0 0 75.000000 13.000000"
 preserveAspectRatio="xMidYMid meet">
<metadata>
Created by potrace 1.16, written by Peter Selinger 2001-2019
</metadata>
<g transform="translate(0.000000,13.000000) scale(0.100000,-0.100000)"
fill="#000000" stroke="none">
<path d="M192 118 c-16 -16 -16 -80 0 -96 17 -17 329 -17 346 0 16 16 16 80 0
96 -17 17 -329 17 -346 0z m343 -48 l0 -45 -170 0 -170 0 -3 33 c-6 61 -9 60
175 58 l168 -1 0 -45z"/>
<path d="M274 95 c-4 -8 -4 -21 -1 -29 3 -7 0 -19 -6 -26 -9 -10 -9 -11 2 -5
19 11 63 11 81 0 10 -6 11 -4 4 6 -4 8 -7 24 -6 36 2 11 -1 23 -5 26 -5 3 -9
-7 -8 -21 0 -22 -4 -27 -25 -27 -21 0 -25 5 -25 28 1 30 -3 34 -11 12z"/>
<path d="M380 89 c0 -19 31 -49 52 -49 18 0 48 31 48 51 0 8 -6 3 -13 -11 -8
-16 -21 -25 -37 -25 -16 0 -29 9 -37 25 -8 16 -13 19 -13 9z"/>
</g>
</svg>
