<?xml version="1.0" standalone="no"?>
<!DOCTYPE svg PUBLIC "-//W3C//DTD SVG 20010904//EN"
 "http://www.w3.org/TR/2001/REC-SVG-20010904/DTD/svg10.dtd">
<svg version="1.0" xmlns="http://www.w3.org/2000/svg"
 width="13.000000pt" height="13.000000pt" viewBox="0 0 13.000000 13.000000"
 preserveAspectRatio="xMidYMid meet">
<metadata>
Created by potrace 1.16, written by Peter Selinger 2001-2019
</metadata>
<g transform="translate(0.000000,13.000000) scale(0.100000,-0.100000)"
fill="#000000" stroke="none">
<path d="M50 110 c0 -5 5 -10 10 -10 6 0 10 5 10 10 0 6 -4 10 -10 10 -5 0
-10 -4 -10 -10z"/>
<path d="M15 50 c0 -17 4 -25 9 -20 5 5 19 4 33 -3 19 -8 27 -7 41 6 15 16 15
18 0 34 -14 13 -22 14 -41 6 -14 -7 -28 -8 -33 -3 -5 5 -9 -3 -9 -20z m83 3
c5 -17 -26 -29 -40 -15 -6 6 -7 15 -3 22 9 14 37 9 43 -7z"/>
</g>
</svg>
