<?xml version="1.0" standalone="no"?>
<!DOCTYPE svg PUBLIC "-//W3C//DTD SVG 20010904//EN"
 "http://www.w3.org/TR/2001/REC-SVG-20010904/DTD/svg10.dtd">
<svg version="1.0" xmlns="http://www.w3.org/2000/svg"
 width="14.000000pt" height="13.000000pt" viewBox="0 0 14.000000 13.000000"
 preserveAspectRatio="xMidYMid meet">
<metadata>
Created by potrace 1.16, written by Peter Selinger 2001-2019
</metadata>
<g transform="translate(0.000000,13.000000) scale(0.100000,-0.100000)"
fill="#000000" stroke="none">
<path d="M52 108 c-7 -7 -12 -20 -12 -29 0 -9 -9 -19 -21 -22 -31 -8 -18 -31
19 -35 25 -3 32 0 32 15 0 15 -2 16 -10 3 -8 -11 -10 -5 -8 25 2 28 8 40 18
40 8 0 14 -6 12 -13 -1 -6 3 -11 10 -10 8 2 12 -9 11 -32 -2 -35 -2 -35 6 -5
5 21 2 37 -9 52 -17 25 -31 28 -48 11z"/>
<path d="M81 34 c0 -11 3 -14 6 -6 3 7 2 16 -1 19 -3 4 -6 -2 -5 -13z"/>
</g>
</svg>
