<?xml version="1.0" standalone="no"?>
<!DOCTYPE svg PUBLIC "-//W3C//DTD SVG 20010904//EN"
 "http://www.w3.org/TR/2001/REC-SVG-20010904/DTD/svg10.dtd">
<svg version="1.0" xmlns="http://www.w3.org/2000/svg"
 width="13.000000pt" height="13.000000pt" viewBox="0 0 13.000000 13.000000"
 preserveAspectRatio="xMidYMid meet">
<metadata>
Created by potrace 1.16, written by Peter Selinger 2001-2019
</metadata>
<g transform="translate(0.000000,13.000000) scale(0.100000,-0.100000)"
fill="#000000" stroke="none">
<path d="M10 114 c0 -6 3 -14 7 -18 4 -4 7 -18 8 -33 1 -56 69 -56 70 0 1 15
4 29 8 33 4 4 7 12 7 18 0 6 -4 5 -9 -3 -5 -8 -24 -15 -41 -15 -17 0 -36 7
-41 15 -5 8 -9 9 -9 3z m75 -54 c0 -18 -6 -26 -23 -28 -24 -4 -38 18 -28 44 3
9 15 14 28 12 17 -2 23 -10 23 -28z"/>
</g>
</svg>
