<?xml version="1.0" standalone="no"?>
<!DOCTYPE svg PUBLIC "-//W3C//DTD SVG 20010904//EN"
 "http://www.w3.org/TR/2001/REC-SVG-20010904/DTD/svg10.dtd">
<svg version="1.0" xmlns="http://www.w3.org/2000/svg"
 width="76.000000pt" height="13.000000pt" viewBox="0 0 76.000000 13.000000"
 preserveAspectRatio="xMidYMid meet">
<metadata>
Created by potrace 1.16, written by Peter Selinger 2001-2019
</metadata>
<g transform="translate(0.000000,13.000000) scale(0.100000,-0.100000)"
fill="#000000" stroke="none">
<path d="M162 97 c-12 -13 -22 -35 -22 -50 0 -25 3 -27 45 -27 43 0 45 1 45
28 0 17 -10 37 -23 50 l-23 22 -22 -23z m58 -44 c0 -20 -5 -23 -35 -23 -29 0
-35 4 -35 22 0 12 7 30 17 40 15 17 17 17 35 2 10 -10 18 -28 18 -41z"/>
<path d="M302 68 l-2 -58 157 0 c86 0 153 3 149 7 -4 4 -72 6 -151 4 l-144 -2
-4 53 -3 53 -2 -57z"/>
<path d="M515 100 c-18 -20 -15 -70 5 -70 6 0 5 9 -2 20 -18 29 1 55 40 55 16
0 28 3 25 7 -9 15 -50 8 -68 -12z"/>
<path d="M387 103 c-14 -13 -7 -25 7 -14 11 10 20 10 36 1 24 -13 50 -7 50 11
0 8 -4 8 -14 0 -11 -9 -20 -9 -35 -2 -23 13 -35 14 -44 4z"/>
<path d="M530 84 c-18 -21 13 -55 32 -36 9 9 9 15 -1 25 -10 10 -11 8 -5 -7 5
-13 3 -17 -6 -14 -24 8 -23 28 2 37 15 6 17 10 7 10 -9 1 -22 -6 -29 -15z"/>
<path d="M586 77 c3 -9 1 -24 -6 -32 -8 -9 -8 -15 -2 -15 16 0 26 40 12 54 -8
8 -10 7 -4 -7z"/>
<path d="M387 63 c-14 -13 -7 -25 7 -14 11 10 20 10 36 1 24 -13 50 -7 50 11
0 8 -4 8 -14 0 -11 -9 -20 -9 -35 -2 -23 13 -35 14 -44 4z"/>
</g>
</svg>
